<?xml version="1.0" encoding="utf-8"?>
<!-- Generator: Adobe Illustrator 17.1.0, SVG Export Plug-In . SVG Version: 6.00 Build 0)  -->
<!DOCTYPE svg PUBLIC "-//W3C//DTD SVG 1.1//EN" "http://www.w3.org/Graphics/SVG/1.1/DTD/svg11.dtd">
<svg version="1.1" id="Layer_1" xmlns="http://www.w3.org/2000/svg" xmlns:xlink="http://www.w3.org/1999/xlink" x="0px" y="0px"
	 viewBox="0 0 841.9 1190.6" enable-background="new 0 0 841.9 1190.6" xml:space="preserve">
<g>
	<g>
		<line fill="none" stroke="#DADADA" stroke-width="5" stroke-miterlimit="10" x1="532.8" y1="616.5" x2="532.8" y2="667.1"/>
		<g>
			<polygon fill="#DADADA" points="525.3,664.9 532.7,677.9 540.2,664.9 			"/>
		</g>
	</g>
</g>
<text transform="matrix(0.9976 0 0 1 525.1685 631.125)" fill="#9D9D9C" font-family="'ArialMT'" font-size="9">MG</text>
<text transform="matrix(0.9976 0 0 1 525.6655 651.0256)" fill="#9D9D9C" font-family="'ArialMT'" font-size="9">DG</text>
<text transform="matrix(0.9976 0 0 1 526.1649 670.9255)" fill="#9D9D9C" font-family="'ArialMT'" font-size="9">TG</text>
<line fill="none" stroke="#010202" stroke-width="0.4" stroke-linecap="round" stroke-miterlimit="2" x1="545.2" y1="657" x2="545.2" y2="649.2"/>
<line fill="none" stroke="#010202" stroke-width="0.4" stroke-linecap="round" stroke-miterlimit="2" x1="545.2" y1="649.2" x2="554.6" y2="644.3"/>
<line fill="none" stroke="#010202" stroke-width="0.4" stroke-linecap="round" stroke-miterlimit="2" x1="554.6" y1="644.3" x2="564.2" y2="649.8"/>
<line fill="none" stroke="#010202" stroke-width="0.4" stroke-linecap="round" stroke-miterlimit="2" x1="571.1" y1="645.8" x2="564.2" y2="649.8"/>
<text transform="matrix(0.9976 0 0 1 542.5285 663.2604)" fill="#010202" font-family="'ArialMT'" font-size="6.6772">O</text>
<line fill="none" stroke="#010202" stroke-width="0.4" stroke-linecap="round" stroke-miterlimit="2" x1="554.6" y1="644.3" x2="554.6" y2="636.1"/>
<g>
	<g>
		<text transform="matrix(0.9976 0 0 1 572.0684 647.8238)" fill="#010202" font-family="'ArialMT'" font-size="6.6772">O</text>
	</g>
</g>
<g>
	<text transform="matrix(0.9976 0 0 1 550.4185 679.3949)" fill="#010202" font-family="'ArialMT'" font-size="6.6772">O</text>
	
		<line fill="none" stroke="#010202" stroke-width="0.4" stroke-linecap="round" stroke-miterlimit="2" x1="559.9" y1="664.9" x2="553.2" y2="668.8"/>
	
		<line fill="none" stroke="#010202" stroke-width="0.4" stroke-linecap="round" stroke-miterlimit="2" x1="546.2" y1="664.8" x2="553.1" y2="668.8"/>
	
		<line fill="none" stroke="#010202" stroke-width="0.4" stroke-linecap="round" stroke-miterlimit="2" x1="553.9" y1="668.5" x2="553.9" y2="673.4"/>
	
		<line fill="none" stroke="#010202" stroke-width="0.4" stroke-linecap="round" stroke-miterlimit="2" x1="552.4" y1="668.4" x2="552.4" y2="673.4"/>
</g>
<text transform="matrix(0.9976 0 0 1 552.1882 634.8343)" fill="#010202" font-family="'ArialMT'" font-size="6.6772">O</text>
<g>
	<text transform="matrix(0.9976 0 0 1 559.7404 619.2313)" fill="#010202" font-family="'ArialMT'" font-size="6.6772">O</text>
	
		<line fill="none" stroke="#010202" stroke-width="0.4" stroke-linecap="round" stroke-miterlimit="2" x1="555.6" y1="628.8" x2="562.3" y2="624.9"/>
	
		<line fill="none" stroke="#010202" stroke-width="0.4" stroke-linecap="round" stroke-miterlimit="2" x1="569.3" y1="628.9" x2="562.4" y2="624.9"/>
	
		<line fill="none" stroke="#010202" stroke-width="0.4" stroke-linecap="round" stroke-miterlimit="2" x1="561.6" y1="625.2" x2="561.6" y2="620.3"/>
	
		<line fill="none" stroke="#010202" stroke-width="0.4" stroke-linecap="round" stroke-miterlimit="2" x1="563.1" y1="625.2" x2="563.1" y2="620.3"/>
</g>
<text transform="matrix(0.9976 0 0 1 582.5733 660.4044)" fill="#010202" font-family="'ArialMT'" font-size="6.6772">O</text>
<line fill="none" stroke="#010202" stroke-width="0.4" stroke-linecap="round" stroke-miterlimit="2" x1="591.7" y1="645.9" x2="585" y2="649.8"/>
<line fill="none" stroke="#010202" stroke-width="0.4" stroke-linecap="round" stroke-miterlimit="2" x1="578.1" y1="645.8" x2="585" y2="649.8"/>
<line fill="none" stroke="#010202" stroke-width="0.4" stroke-linecap="round" stroke-miterlimit="2" x1="585.7" y1="649.5" x2="585.7" y2="654.4"/>
<line fill="none" stroke="#010202" stroke-width="0.4" stroke-linecap="round" stroke-miterlimit="2" x1="584.3" y1="649.5" x2="584.3" y2="654.4"/>
</svg>
