<?xml version="1.0" encoding="UTF-8" standalone="no"?>
<!-- Generator: Adobe Illustrator 22.1.0, SVG Export Plug-In . SVG Version: 6.00 Build 0)  -->

<svg
   xmlns:dc="http://purl.org/dc/elements/1.1/"
   xmlns:cc="http://creativecommons.org/ns#"
   xmlns:rdf="http://www.w3.org/1999/02/22-rdf-syntax-ns#"
   xmlns:svg="http://www.w3.org/2000/svg"
   xmlns="http://www.w3.org/2000/svg"
   xmlns:xlink="http://www.w3.org/1999/xlink"
   xmlns:sodipodi="http://sodipodi.sourceforge.net/DTD/sodipodi-0.dtd"
   xmlns:inkscape="http://www.inkscape.org/namespaces/inkscape"
   version="1.1"
   id="Layer_1"
   x="0px"
   y="0px"
   viewBox="0 0 526 64.000001"
   xml:space="preserve"
   inkscape:version="0.91 r13725"
   sodipodi:docname="wizard_banner.svg"
   width="526"
   height="64"
   inkscape:export-filename="/home/dominik.kopczynski/workspace/src/LipidCreator/LipidCreator/images/wizard_banner.png"
   inkscape:export-xdpi="90"
   inkscape:export-ydpi="90"><metadata
     id="metadata349"><rdf:RDF><cc:Work
         rdf:about=""><dc:format>image/svg+xml</dc:format><dc:type
           rdf:resource="http://purl.org/dc/dcmitype/StillImage" /><dc:title>LipidCreator_L_v1</dc:title></cc:Work></rdf:RDF></metadata><defs
     id="defs347"><linearGradient
       inkscape:collect="always"
       xlink:href="#SVGID_6_"
       id="linearGradient4601"
       x1="-819.15027"
       y1="-118.93127"
       x2="180.55823"
       y2="-443.24951"
       gradientUnits="userSpaceOnUse"
       gradientTransform="matrix(0.0143086,-0.00783489,0.00783489,0.0143086,435.92552,10.841543)" /><linearGradient
       inkscape:collect="always"
       xlink:href="#SVGID_2_"
       id="linearGradient4611"
       x1="147.25554"
       y1="-175.00317"
       x2="147.19685"
       y2="-142.02238"
       gradientUnits="userSpaceOnUse" /><linearGradient
       id="linearGradient4662"
       gradientUnits="userSpaceOnUse"
       x1="393.25241"
       y1="429.60611"
       x2="328.74759"
       y2="378.97339"
       gradientTransform="matrix(1,0,0,-1,0,623.8898)"><stop
         offset="0"
         style="stop-color:#c2c2c2;stop-opacity:1"
         id="stop25-8" /><stop
         id="stop4631-1"
         style="stop-color:#f7f7f7;stop-opacity:1"
         offset="0.36918512" /><stop
         offset="0.39791599"
         style="stop-color:#f7f7f7;stop-opacity:1"
         id="stop4633-6" /><stop
         offset="1"
         style="stop-color:#c2c2c2;stop-opacity:1"
         id="stop27-3" /></linearGradient><linearGradient
       inkscape:collect="always"
       xlink:href="#linearGradient4662"
       id="linearGradient4611-9-8"
       x1="147.25554"
       y1="-175.00317"
       x2="147.19685"
       y2="-142.02238"
       gradientUnits="userSpaceOnUse"
       gradientTransform="matrix(0.29277216,0,0,1,-98.112408,4.3217607e-4)" /><linearGradient
       inkscape:collect="always"
       xlink:href="#SVGID_6_"
       id="linearGradient4601-7"
       x1="-819.15027"
       y1="-118.93127"
       x2="180.55823"
       y2="-443.24951"
       gradientUnits="userSpaceOnUse"
       gradientTransform="matrix(0,-0.01631323,0.01631323,0,362.52568,3.5576211)" /><linearGradient
       id="linearGradient4751"
       gradientUnits="userSpaceOnUse"
       x1="121.727"
       y1="612.51758"
       x2="149.258"
       y2="635.00488"
       gradientTransform="matrix(1,0,0,-1,0,623.8898)"><stop
         offset="0"
         style="stop-color:#ffb41c;stop-opacity:1"
         id="stop189-7" /><stop
         offset="1"
         style="stop-color:#fff83d;stop-opacity:1"
         id="stop191-2" /></linearGradient><linearGradient
       inkscape:collect="always"
       xlink:href="#linearGradient4751"
       id="linearGradient4601-72"
       x1="-819.15027"
       y1="-118.93127"
       x2="180.55823"
       y2="-443.24951"
       gradientUnits="userSpaceOnUse"
       gradientTransform="matrix(0.00583681,-0.01523329,0.01523329,0.00583681,411.69268,5.5826109)" /><linearGradient
       inkscape:collect="always"
       xlink:href="#linearGradient4751"
       id="linearGradient4601-6"
       x1="-819.15027"
       y1="-118.93127"
       x2="180.55823"
       y2="-443.24951"
       gradientUnits="userSpaceOnUse"
       gradientTransform="matrix(-0.00789535,-0.01427532,0.01427532,-0.00789535,409.60112,21.839187)" /><linearGradient
       inkscape:collect="always"
       xlink:href="#linearGradient4751"
       id="linearGradient4601-4"
       x1="-819.15027"
       y1="-118.93127"
       x2="180.55823"
       y2="-443.24951"
       gradientUnits="userSpaceOnUse"
       gradientTransform="matrix(0.01069126,-0.01232146,0.01232146,0.01069126,388.61055,12.377153)" /></defs><sodipodi:namedview
     pagecolor="#ffffff"
     bordercolor="#666666"
     borderopacity="1"
     objecttolerance="10"
     gridtolerance="10"
     guidetolerance="10"
     inkscape:pageopacity="0"
     inkscape:pageshadow="2"
     inkscape:window-width="1920"
     inkscape:window-height="1008"
     id="namedview345"
     showgrid="false"
     inkscape:zoom="1.5120936"
     inkscape:cx="275.30478"
     inkscape:cy="68.99785"
     inkscape:window-x="0"
     inkscape:window-y="0"
     inkscape:window-maximized="1"
     inkscape:current-layer="Layer_1" /><style
     type="text/css"
     id="style3">
	.st0{fill:url(#SVGID_1_);}
	.st1{fill:none;stroke:url(#SVGID_2_);stroke-width:5;stroke-miterlimit:10;}
	.st2{fill:#ACC8E7;}
	.st3{fill:#487EBD;}
	.st4{fill:#7799C8;}
	.st5{fill:#72B0DA;}
	.st6{fill:#7970AF;}
	.st7{fill:#9B6694;}
	.st8{fill:#9BD6FF;}
	.st9{fill:#4E6B7F;}
	.st10{fill:#74A0BF;}
	.st11{fill:none;}
	.st12{fill:#677F79;}
	.st13{fill:#68CCB1;}
	.st14{fill:#417F6E;}
	.st15{fill:#9FC8E6;}
	.st16{fill:#1E84C2;}
	.st17{fill:#6DADD9;}
	.st18{fill:none;stroke:url(#SVGID_3_);stroke-width:5;stroke-miterlimit:10;}
	.st19{fill:url(#SVGID_4_);}
	.st20{fill:url(#SVGID_5_);}
	.st21{font-family:'MyriadPro-Regular';}
	.st22{font-size:12px;}
	.st23{fill:url(#SVGID_6_);}
	.st24{fill:#FFFFFF;}
	.st25{fill:none;stroke:url(#SVGID_7_);stroke-width:4.1057;stroke-miterlimit:10;}
	.st26{fill:none;stroke:url(#SVGID_8_);stroke-width:2.0529;stroke-miterlimit:10;}
	.st27{fill:url(#SVGID_9_);}
	.st28{fill:none;stroke:url(#SVGID_10_);stroke-width:8.2114;stroke-miterlimit:10;}
	.st29{fill:url(#SVGID_11_);}
	.st30{fill:url(#SVGID_12_);}
</style><linearGradient
     id="SVGID_1_"
     gradientUnits="userSpaceOnUse"
     x1="65.008301"
     y1="405.8302"
     x2="114.8384"
     y2="436.60831"
     gradientTransform="matrix(1,0,0,-1,0,623.8898)"><stop
       offset="0"
       style="stop-color:#F1F7FB"
       id="stop6" /><stop
       offset="0.2047"
       style="stop-color:#EEF5FA"
       id="stop8" /><stop
       offset="0.3753"
       style="stop-color:#E3EFF6"
       id="stop10" /><stop
       offset="0.5336"
       style="stop-color:#D2E5F0"
       id="stop12" /><stop
       offset="0.6846"
       style="stop-color:#BAD7E8"
       id="stop14" /><stop
       offset="0.8305"
       style="stop-color:#9AC5DD"
       id="stop16" /><stop
       offset="0.9705"
       style="stop-color:#74AFD0"
       id="stop18" /><stop
       offset="1"
       style="stop-color:#6BAACD"
       id="stop20" /></linearGradient><linearGradient
     id="SVGID_2_"
     gradientUnits="userSpaceOnUse"
     x1="393.25241"
     y1="429.60611"
     x2="328.74759"
     y2="378.97339"
     gradientTransform="matrix(1,0,0,-1,0,623.8898)"><stop
       offset="0"
       style="stop-color:#000000;stop-opacity:1"
       id="stop25" /><stop
       id="stop4631"
       style="stop-color:#686868;stop-opacity:1"
       offset="0.36918512" /><stop
       offset="0.39791599"
       style="stop-color:#6b6b6b;stop-opacity:1"
       id="stop4633" /><stop
       offset="1"
       style="stop-color:#0a171f;stop-opacity:1"
       id="stop27" /></linearGradient><title
     id="title6">LipidCreator_L_v1</title><g
     id="flowRoot1041"
     transform="translate(0,-560.29999)" /><linearGradient
     id="SVGID_3_"
     gradientUnits="userSpaceOnUse"
     x1="221.8134"
     y1="404.98981"
     x2="306.78659"
     y2="404.98981"
     gradientTransform="matrix(1,0,0,-1,0,623.8898)"><stop
       offset="0"
       style="stop-color:#DDEAF5"
       id="stop130" /><stop
       offset="1"
       style="stop-color:#6BAACD"
       id="stop132" /></linearGradient><linearGradient
     id="SVGID_4_"
     gradientUnits="userSpaceOnUse"
     x1="165.2128"
     y1="411.28119"
     x2="212.3611"
     y2="449.7919"
     gradientTransform="matrix(1,0,0,-1,0,623.8898)"><stop
       offset="0"
       style="stop-color:#F1F7FB"
       id="stop150" /><stop
       offset="0.1386"
       style="stop-color:#EBF3F9"
       id="stop152" /><stop
       offset="0.3288"
       style="stop-color:#d9e90b;stop-opacity:1"
       id="stop154" /><stop
       offset="0.54909998"
       style="stop-color:#BCD9E9"
       id="stop156" /><stop
       offset="0.7899"
       style="stop-color:#94C2DB"
       id="stop158" /><stop
       offset="1"
       style="stop-color:#6BAACD"
       id="stop160" /></linearGradient><linearGradient
     id="SVGID_5_"
     gradientUnits="userSpaceOnUse"
     x1="43.559898"
     y1="601.25018"
     x2="98.621902"
     y2="646.22491"
     gradientTransform="matrix(1,0,0,-1,0,623.8898)"><stop
       offset="0"
       style="stop-color:#DDEAF5"
       id="stop178" /><stop
       offset="1"
       style="stop-color:#6BAACD"
       id="stop180" /></linearGradient><linearGradient
     id="SVGID_6_"
     gradientUnits="userSpaceOnUse"
     x1="121.727"
     y1="612.51758"
     x2="149.258"
     y2="635.00488"
     gradientTransform="matrix(1,0,0,-1,0,623.8898)"><stop
       offset="0"
       style="stop-color:#ffb41c;stop-opacity:1"
       id="stop189" /><stop
       offset="1"
       style="stop-color:#fff83d;stop-opacity:1"
       id="stop191" /></linearGradient><g
     id="g241"
     transform="matrix(0.43137327,0,0,0.43137327,0.3182584,-189.38077)"><circle
       class="st24"
       cx="81.599998"
       cy="513.20001"
       r="63.200001"
       id="circle243"
       style="fill:#ffffff" /><radialGradient
       id="SVGID_9_"
       cx="81.800003"
       cy="110.6898"
       r="63.200001"
       gradientTransform="matrix(1,0,0,-1,0,623.8898)"
       gradientUnits="userSpaceOnUse"><stop
         offset="0.1139"
         style="stop-color:#F1F7FB"
         id="stop246" /><stop
         offset="0.8681"
         style="stop-color:#E0EDF5"
         id="stop248" /><stop
         offset="0.9395"
         style="stop-color:#B2D3E5"
         id="stop250" /><stop
         offset="1"
         style="stop-color:#6BAACD"
         id="stop252" /></radialGradient><circle
       class="st27"
       cx="81.800003"
       cy="513.20001"
       r="63.200001"
       id="circle254"
       style="fill:url(#SVGID_9_)" /><g
       id="g256"><g
         id="g258"><polyline
           id="polyline68_22_"
           class="st15"
           points="55.1,529 78.9,529 78.9,499.4    "
           style="fill:#9fc8e6" /><polyline
           id="polyline70_17_"
           class="st16"
           points="78.9,499.4 55.1,499.4 55.1,529    "
           style="fill:#1e84c2" /><polyline
           id="polyline72_16_"
           class="st17"
           points="108.5,534.7 108.5,558.5 78.9,558.5    "
           style="fill:#6dadd9" /><polyline
           id="polyline74_17_"
           class="st16"
           points="55.1,529 78.9,529 78.9,558.5    "
           style="fill:#1e84c2" /><polyline
           id="polyline76_16_"
           class="st15"
           points="78.9,499.4 55.1,499.4 55.1,469.8    "
           style="fill:#9fc8e6" /><polyline
           id="polyline78_17_"
           class="st16"
           points="55.1,469.8 78.9,469.8 78.9,499.4    "
           style="fill:#1e84c2" /></g><circle
         cx="59.299999"
         cy="484"
         r="1.2"
         id="circle266" /></g></g><flowRoot
     xml:space="preserve"
     id="flowRoot4550"
     style="font-style:normal;font-variant:normal;font-weight:normal;font-stretch:normal;font-size:15px;line-height:125%;font-family:Calibri;-inkscape-font-specification:Calibri;letter-spacing:0px;word-spacing:0px;fill:#000000;fill-opacity:1;stroke:none;stroke-width:1px;stroke-linecap:butt;stroke-linejoin:miter;stroke-opacity:1"
     transform="matrix(1.1299885,0,0,1.1299885,20.745102,92.752521)"><flowRegion
       id="flowRegion4552"><rect
         id="rect4554"
         width="457.34631"
         height="85.109436"
         x="46.763428"
         y="-72.54921" /></flowRegion><flowPara
       id="flowPara4556"
       style="font-style:normal;font-variant:normal;font-weight:bold;font-stretch:normal;font-size:30px;font-family:Arial;-inkscape-font-specification:'Arial Bold'">LipidCreator Wizard</flowPara></flowRoot><path
     style="fill:url(#linearGradient4601);fill-opacity:1;stroke:#ffc000;stroke-width:0.80000001;stroke-linecap:butt;stroke-linejoin:round;stroke-miterlimit:3;stroke-dasharray:none;stroke-opacity:1"
     d="m 427.65577,18.305989 c -0.004,-0.0079 -0.26961,-1.401415 -0.58913,-3.095995 -0.5469,-2.900501 -0.58313,-3.081625 -0.61837,-3.090846 -0.0206,-0.0054 -1.4,-0.182586 -3.06537,-0.393765 -1.66538,-0.211194 -3.0591,-0.388535 -3.09716,-0.394112 l -0.0692,-0.01011 2.77056,-1.5261867 2.77057,-1.526189 -0.46564,-2.4697469 c -0.2561,-1.3583594 -0.51891,-2.7531007 -0.58401,-3.0994222 -0.0651,-0.3463196 -0.11269,-0.6280183 -0.10576,-0.6259876 0.007,0.00194 1.04282,0.9734491 2.30197,2.1587289 l 2.28935,2.1550412 2.7738,-1.5097133 2.77379,-1.5097128 -1.33261,2.8183887 c -0.73294,1.550108 -1.33952,2.833495 -1.34796,2.85198 -0.0145,0.03163 0.11694,0.158103 2.27481,2.1895087 1.2596,1.185755 2.29706,2.159856 2.30547,2.164659 0.008,0.0046 0.004,0.01025 -0.0114,0.01192 -0.0144,0.0022 -1.42443,-0.174479 -3.13311,-0.392112 -1.70868,-0.217631 -3.11371,-0.391944 -3.12229,-0.387359 -0.009,0.0046 -0.61657,1.278663 -1.35108,2.831296 -0.73451,1.552641 -1.34083,2.832283 -1.3474,2.843643 -0.006,0.01153 -0.0155,0.01418 -0.0203,0.0054 z"
     id="path4591"
     inkscape:connector-curvature="0" /><g
     id="g4720"
     transform="matrix(0.54332172,0,0,0.40000771,-43.016365,-83.471776)"><g
       id="g4724"
       transform="matrix(0.42368271,0.20210197,-0.10756147,0.41601053,887.05413,356.36512)"><rect
         style="color:#000000;clip-rule:nonzero;display:inline;overflow:visible;visibility:visible;opacity:1;isolation:auto;mix-blend-mode:normal;color-interpolation:sRGB;color-interpolation-filters:linearRGB;solid-color:#000000;solid-opacity:1;fill:url(#linearGradient4611);fill-opacity:1;fill-rule:nonzero;stroke:none;stroke-width:0.80000001;stroke-linecap:butt;stroke-linejoin:round;stroke-miterlimit:3;stroke-dasharray:none;stroke-dashoffset:0;stroke-opacity:1;marker:none;color-rendering:auto;image-rendering:auto;shape-rendering:auto;text-rendering:auto;enable-background:accumulate"
         id="rect4603"
         width="311.81934"
         height="33.066734"
         x="-16.533371"
         y="-175.40317" /><rect
         style="color:#000000;display:inline;overflow:visible;visibility:visible;opacity:1;fill:url(#linearGradient4611-9-8);fill-opacity:1;fill-rule:nonzero;stroke:none;stroke-width:0.80000001;stroke-linecap:butt;stroke-linejoin:round;stroke-miterlimit:3;stroke-dasharray:none;stroke-dashoffset:0;stroke-opacity:1;marker:none;enable-background:accumulate"
         id="rect4603-2-8"
         width="91.292023"
         height="33.066734"
         x="-102.95293"
         y="-175.40274" /></g></g><path
     style="fill:url(#linearGradient4601-7);fill-opacity:1;stroke:#ffc000;stroke-width:0.80000001;stroke-linecap:butt;stroke-linejoin:round;stroke-miterlimit:3;stroke-dasharray:none;stroke-opacity:1"
     d="m 365.10108,14.396169 c -0.009,0 -1.35869,-0.436593 -2.99849,-0.970211 -2.80674,-0.913354 -2.98301,-0.968561 -3.00802,-0.942086 -0.0146,0.01546 -0.83254,1.140273 -1.81761,2.499571 -0.98509,1.359303 -1.81001,2.496579 -1.83318,2.527282 l -0.0421,0.05583 -0.008,-3.163103 -0.008,-3.163107 -2.38989,-0.777748 c -1.31444,-0.427758 -2.66401,-0.8671109 -2.99904,-0.9763419 -0.33503,-0.109227 -0.60497,-0.202777 -0.59986,-0.207881 0.005,-0.0051 1.35467,-0.447144 2.99904,-0.982299 l 2.98975,-0.973011 0.008,-3.158023 0.008,-3.15802 1.83203,2.522464 c 1.00761,1.387355 1.84196,2.535785 1.85412,2.552065 0.0208,0.02787 0.19484,-0.02664 3.013,-0.943705 1.645,-0.535317 2.99767,-0.977452 3.00592,-0.982519 0.008,-0.0051 0.0107,0.0018 0.005,0.01569 -0.005,0.01368 -0.83716,1.16559 -1.84869,2.559773 -1.01153,1.394187 -1.83923,2.542845 -1.83933,2.552574 -1.2e-4,0.0097 0.82541,1.1549199 1.83448,2.5448659 1.00908,1.389946 1.84027,2.536346 1.84708,2.547562 0.007,0.01122 0.005,0.02039 -0.005,0.02039 z"
     id="path4591-3"
     inkscape:connector-curvature="0" /><path
     style="fill:url(#linearGradient4601-72);fill-opacity:1;stroke:#ffc000;stroke-width:0.80000001;stroke-linecap:butt;stroke-linejoin:round;stroke-miterlimit:3;stroke-dasharray:none;stroke-opacity:1"
     d="m 410.2196,16.625112 c -0.008,-0.0032 -1.11254,-0.893824 -2.45285,-1.97883 -2.29414,-1.857129 -2.43899,-1.97175 -2.47182,-1.955977 -0.0192,0.0092 -1.18541,0.766908 -2.59162,1.683766 -1.40623,0.916856 -2.58345,1.683691 -2.61607,1.704071 l -0.0593,0.03707 1.12427,-2.956567 1.12428,-2.956571 -1.9534,-1.5813538 c -1.07438,-0.8697413 -2.17741,-1.7628803 -2.45118,-1.9847523 -0.27377,-0.221868 -0.49236,-0.405809 -0.48577,-0.408747 0.006,-0.003 1.42498,0.06715 3.15197,0.155774 l 3.13997,0.161121 1.13739,-2.946098 1.1374,-2.94609703 0.80822,3.01097003 c 0.44452,1.656031 0.81273,3.026961 0.81826,3.046514 0.009,0.03347 0.19148,0.04484 3.15119,0.196807 1.72764,0.0887 3.14896,0.15981 3.15847,0.158031 0.009,-0.0019 0.009,0.0055 -9.4e-4,0.01644 -0.01,0.01098 -1.19878,0.788894 -2.64218,1.7288613 -1.4434,0.939971 -2.6273,1.7164398 -2.63087,1.7254888 -0.004,0.009 0.35754,1.373793 0.80249,3.032765 0.44497,1.658976 0.81095,3.026881 0.8133,3.039791 0.003,0.01298 -0.003,0.02083 -0.012,0.01725 z"
     id="path4591-7"
     inkscape:connector-curvature="0"
     inkscape:transform-center-x="6.6726512e-05"
     inkscape:transform-center-y="-0.46713134" /><path
     style="fill:url(#linearGradient4601-6);fill-opacity:1;stroke:#ffc000;stroke-width:0.80000001;stroke-linecap:butt;stroke-linejoin:round;stroke-miterlimit:3;stroke-dasharray:none;stroke-opacity:1"
     d="m 417.10048,30.077291 c -0.008,0.0044 -1.40026,0.275533 -3.09348,0.602215 -2.89816,0.559165 -3.07913,0.596166 -3.0882,0.631438 -0.005,0.0206 -0.17666,1.400763 -0.38079,3.067011 -0.20415,1.666263 -0.37559,3.060715 -0.38101,3.098797 l -0.01,0.06923 -1.53789,-2.764085 -1.5379,-2.764089 -2.46775,0.476082 c -1.35727,0.261847 -2.75089,0.530551 -3.09693,0.597115 -0.34604,0.06657 -0.62753,0.115351 -0.62553,0.108411 0.002,-0.0069 0.96903,-1.046924 2.14897,-2.311076 l 2.14534,-2.298453 -1.52144,-2.767383 -1.52143,-2.767381 2.824,1.320675 c 1.55319,0.726374 2.83914,1.327524 2.85766,1.335885 0.0317,0.01432 0.1576,-0.117611 2.17986,-2.28406 1.18042,-1.264597 2.15012,-2.306171 2.15489,-2.314597 0.005,-0.0083 0.0102,-0.0036 0.012,0.01131 0.002,0.01439 -0.16845,1.425152 -0.37886,3.134733 -0.2104,1.709587 -0.37876,3.115344 -0.37414,3.123906 0.005,0.0085 1.28126,0.611158 2.83698,1.339092 1.55574,0.72793 2.83793,1.328834 2.84932,1.335353 0.0116,0.0064 0.0142,0.01542 0.005,0.02026 z"
     id="path4591-36"
     inkscape:connector-curvature="0" /><path
     style="fill:url(#linearGradient4601-4);fill-opacity:1;stroke:#ffc000;stroke-width:0.80000001;stroke-linecap:butt;stroke-linejoin:round;stroke-miterlimit:3;stroke-dasharray:none;stroke-opacity:1"
     d="m 383.45246,22.251408 c -0.007,-0.0059 -0.74009,-1.220211 -1.62892,-2.697937 -1.52136,-2.529324 -1.61831,-2.686545 -1.65455,-2.682939 -0.0212,0.0021 -1.37613,0.315628 -3.01101,0.696723 -1.63489,0.381086 -3.0033,0.699445 -3.04092,0.70745 l -0.0684,0.01458 2.06697,-2.394349 2.06698,-2.394352 -1.29538,-2.153709 c -0.71246,-1.184537 -1.44386,-2.400855 -1.62532,-2.702928 -0.18147,-0.302069 -0.32404,-0.549639 -0.31684,-0.550146 0.007,-5.75e-4 1.31624,0.550086 2.90896,1.223558 l 2.89586,1.224484 2.07573,-2.380026 2.07573,-2.3800249 -0.26942,3.1058939 c -0.14818,1.708237 -0.27065,3.122462 -0.27213,3.142728 -0.003,0.03468 0.16462,0.107571 2.89421,1.261856 1.59331,0.673764 2.90475,1.226321 2.9143,1.227901 0.009,0.0014 0.007,0.0084 -0.007,0.01513 -0.0127,0.0071 -1.39621,0.331722 -3.07393,0.721824 -1.67773,0.390106 -3.0557,0.71524 -3.06215,0.722523 -0.006,0.0072 -0.13347,1.413268 -0.28225,3.124419 -0.14877,1.711157 -0.27229,3.121779 -0.27449,3.134714 -0.002,0.01306 -0.01,0.01868 -0.0171,0.01212 z"
     id="path4591-5"
     inkscape:connector-curvature="0" /></svg>